<?xml version="1.0" standalone="no"?>
<!DOCTYPE svg PUBLIC "-//W3C//DTD SVG 20010904//EN"
 "http://www.w3.org/TR/2001/REC-SVG-20010904/DTD/svg10.dtd">
<svg version="1.0" xmlns="http://www.w3.org/2000/svg"
 width="600.000000pt" height="414.000000pt" viewBox="0 0 600.000000 414.000000"
 preserveAspectRatio="xMidYMid meet">
<g transform="translate(0.000000,414.000000) scale(0.100000,-0.100000)"
fill="#000000" stroke="none">
<path d="M2027 3545 c-114 -31 -207 -99 -307 -224 -35 -43 -36 -43 -130 -57
-259 -38 -430 -121 -582 -283 -89 -94 -137 -185 -174 -326 -15 -57 -51 -152
-84 -220 -78 -163 -94 -218 -94 -340 0 -117 21 -184 80 -254 56 -65 123 -95
214 -95 90 -1 146 18 242 81 62 41 142 123 120 123 -5 0 -34 -11 -65 -25 -104
-48 -248 -67 -331 -44 -21 6 -58 29 -82 51 -62 57 -89 146 -81 262 6 82 40
232 61 274 12 22 14 20 49 -50 58 -118 173 -219 303 -267 123 -46 137 -37 37
24 -36 22 -98 72 -138 110 -92 90 -118 152 -113 266 9 204 181 386 561 592 70
38 130 67 133 64 12 -11 -25 -109 -66 -179 -46 -77 -156 -198 -245 -269 -30
-24 -51 -45 -45 -47 17 -6 124 29 182 60 81 43 150 116 210 222 187 333 347
459 599 473 82 5 108 2 170 -17 83 -26 85 -24 -53 -55 -43 -9 -80 -20 -83 -25
-3 -4 38 -11 91 -15 340 -25 524 -140 524 -327 0 -69 -31 -141 -108 -256 -72
-105 -86 -141 -87 -214 0 -60 5 -75 47 -159 26 -51 46 -94 45 -95 -2 -2 -43
11 -92 28 -87 30 -93 30 -225 25 -146 -5 -227 -23 -355 -79 -156 -68 -368
-235 -470 -371 -57 -75 -99 -146 -92 -153 3 -3 47 33 97 80 278 260 590 424
861 451 83 9 195 -8 273 -41 99 -41 100 -41 93 -8 -3 16 -24 81 -46 144 -23
63 -41 130 -41 148 0 53 47 158 127 281 102 160 121 233 86 337 -36 105 -184
207 -373 254 -50 13 -122 41 -175 70 -120 65 -214 90 -330 89 -49 0 -112 -7
-138 -14z"/>
<path d="M2430 2613 c-379 -38 -644 -146 -863 -352 -65 -62 -207 -233 -207
-251 0 -4 14 -38 31 -74 19 -40 38 -105 47 -161 9 -52 19 -95 23 -95 17 0 30
104 28 210 -4 145 8 170 149 313 175 179 476 314 847 382 50 9 94 21 100 26 9
9 -78 10 -155 2z"/>
<path d="M2485 2226 c-275 -64 -604 -270 -833 -522 -119 -131 -212 -275 -212
-326 0 -33 47 -97 72 -98 4 0 39 43 78 95 107 146 297 340 437 448 214 165
409 258 572 273 159 15 307 -68 396 -221 16 -27 31 -43 33 -37 7 23 -20 121
-52 188 -43 87 -94 139 -175 177 -54 26 -78 31 -160 33 -58 2 -120 -2 -156
-10z"/>
<path d="M4954 1919 c-55 -27 -82 -55 -66 -71 15 -15 15 -48 1 -158 l-11 -87
-72 4 c-61 4 -77 1 -116 -19 -83 -45 -139 -134 -165 -260 -3 -16 -11 -28 -17
-28 -6 0 -40 -18 -74 -41 -78 -51 -132 -61 -163 -30 -24 24 -20 41 9 41 42 0
136 45 178 84 37 35 45 50 49 89 13 112 -102 167 -255 122 -142 -43 -256 -212
-224 -335 9 -38 9 -40 -15 -46 -16 -4 -30 -1 -40 9 -14 14 -15 26 -3 109 20
147 17 178 -19 210 -24 21 -41 28 -74 28 -47 0 -120 -30 -154 -62 l-23 -21 0
23 c0 13 7 81 17 150 18 144 14 176 -25 191 -36 14 -115 -10 -162 -49 -30 -26
-33 -32 -21 -46 16 -19 18 -1 -39 -431 -22 -170 -40 -311 -40 -311 0 -1 17 7
37 17 21 10 56 19 78 19 78 0 94 28 116 192 12 93 34 138 69 138 38 0 43 -22
29 -135 -12 -101 -12 -106 8 -133 30 -40 61 -54 115 -48 52 5 109 32 156 71
l32 26 32 -25 c51 -38 117 -52 181 -39 78 16 139 48 196 103 l50 48 6 -29 c4
-15 23 -42 42 -60 33 -28 41 -31 88 -27 58 5 85 22 135 85 l35 43 7 -26 c10
-37 45 -72 79 -79 53 -12 139 22 192 75 69 69 59 98 -25 75 -49 -13 -52 15
-23 235 51 378 51 386 30 410 -24 27 -87 27 -141 -1z m-106 -441 c20 -20 14
-65 -14 -97 -45 -54 -92 -32 -81 37 10 57 64 91 95 60z m-503 -38 c0 -19 -9
-29 -39 -43 -21 -10 -41 -16 -43 -13 -9 9 18 66 36 76 26 16 46 7 46 -20z"/>
<path d="M2620 1910 c-65 -14 -109 -40 -172 -99 l-64 -59 -59 14 c-175 41
-374 -13 -493 -133 -75 -76 -104 -136 -109 -233 -4 -65 -2 -81 19 -120 56
-103 186 -135 304 -74 102 52 123 115 41 122 -64 6 -74 72 -19 125 35 33 72
47 127 47 l43 0 -23 -72 c-13 -40 -39 -125 -59 -188 -52 -164 -44 -158 -163
-132 -131 30 -234 29 -293 -1 -58 -29 -90 -76 -90 -135 0 -57 27 -101 82 -132
38 -22 55 -25 138 -25 107 1 167 21 248 83 l45 34 93 -22 c152 -37 266 -9 362
87 80 81 122 188 122 318 0 137 -42 239 -134 329 l-60 59 30 24 c71 58 119 65
139 21 22 -50 115 -3 115 57 0 81 -73 127 -170 105z m-170 -572 c24 -87 -4
-191 -69 -252 -26 -25 -42 -30 -91 -34 -68 -5 -70 -1 -41 56 10 20 37 97 60
169 22 73 46 143 52 155 12 22 12 21 45 -14 18 -20 38 -56 44 -80z m-455 -356
c16 -8 13 -13 -21 -36 -60 -40 -134 -33 -134 14 0 32 23 42 82 37 31 -3 64 -9
73 -15z"/>
<path d="M2839 1680 c-72 -38 -93 -119 -41 -160 53 -43 164 -8 192 61 37 88
-56 149 -151 99z"/>
<path d="M3179 1476 c-82 -29 -129 -87 -129 -160 0 -45 40 -92 112 -130 67
-36 98 -64 91 -82 -9 -25 -51 -15 -96 25 -25 21 -57 41 -72 45 -36 9 -77 -13
-96 -53 -14 -31 -17 -32 -32 -16 -21 20 -21 14 -1 161 19 137 16 165 -22 183
-35 16 -116 -7 -163 -47 -31 -25 -33 -30 -20 -49 11 -18 10 -45 -6 -172 -14
-115 -15 -157 -7 -176 29 -63 120 -77 209 -31 28 14 54 30 57 35 3 5 24 0 46
-11 140 -70 351 4 379 133 17 79 -16 132 -114 181 -75 38 -85 46 -78 64 8 22
34 17 82 -16 51 -35 81 -38 106 -10 37 41 13 99 -52 126 -40 17 -146 17 -194
0z"/>
</g>
</svg>
