<?xml version="1.0" standalone="no"?>
<!DOCTYPE svg PUBLIC "-//W3C//DTD SVG 20010904//EN"
 "http://www.w3.org/TR/2001/REC-SVG-20010904/DTD/svg10.dtd">
<svg version="1.0" xmlns="http://www.w3.org/2000/svg"
 viewBox="150 85 300 300"
 preserveAspectRatio="xMidYMid meet">
<rect x="150" y="85" width="300" height="300" rx="60" fill="#e6c89a"/>
<g transform="translate(0.000000,450.000000) scale(0.100000,-0.100000)"
fill="#0f1c1a" stroke="none">
<path d="M2670 3707 c-30 -7 -79 -26 -108 -42 -48 -26 -69 -46 -152 -142 -22
-26 -36 -31 -113 -42 -296 -41 -526 -234 -577 -485 -7 -32 -29 -93 -51 -134
-94 -181 -113 -332 -57 -439 85 -160 279 -172 438 -26 67 63 63 71 -21 36
-216 -89 -369 -10 -369 191 0 74 49 266 62 246 2 -3 14 -27 27 -54 51 -99 147
-178 264 -216 65 -21 61 -6 -15 47 -213 150 -241 301 -89 490 72 89 423 324
448 299 34 -34 -109 -236 -239 -341 -62 -48 -60 -58 5 -38 129 38 195 95 277
238 163 284 356 395 579 335 47 -12 54 -30 14 -31 -16 0 -50 -9 -78 -19 l-50
-17 35 -6 c19 -3 79 -10 132 -16 123 -14 194 -41 257 -97 97 -88 96 -158 -6
-326 -98 -161 -102 -196 -37 -316 19 -34 34 -65 34 -67 0 -2 -33 8 -72 21
-264 92 -650 -78 -852 -374 -63 -92 -54 -100 26 -25 323 304 659 428 898 330
35 -15 68 -23 71 -19 4 4 -9 48 -28 97 -58 149 -49 209 59 368 149 220 83 365
-207 452 -49 15 -112 39 -140 54 -124 69 -255 93 -365 68z"/>
<path d="M2840 2964 c-270 -49 -474 -165 -640 -365 -72 -86 -72 -87 -45 -144
24 -54 45 -139 45 -185 0 -44 16 -36 30 16 8 29 11 74 7 129 l-6 84 38 58
c122 187 412 340 744 393 43 7 80 17 83 21 8 14 -172 9 -256 -7z"/>
<path d="M2938 2651 c-193 -67 -362 -175 -524 -336 -187 -186 -246 -297 -191
-361 28 -32 26 -33 105 76 63 87 248 272 347 345 340 254 580 260 739 20 31
-47 34 -30 10 54 -57 203 -250 283 -486 202z"/>
<path d="M3368 2335 c-69 -19 -131 -58 -198 -127 l-59 -60 -70 16 c-335 76
-686 -119 -732 -406 -26 -159 63 -286 213 -304 162 -19 392 152 239 178 -145
25 -70 198 92 215 81 8 90 3 70 -44 -8 -21 -33 -99 -55 -173 -44 -152 -86
-266 -103 -280 -7 -6 -31 -4 -66 5 -303 81 -497 40 -525 -110 -44 -237 354
-324 570 -125 l46 42 92 -26 c114 -32 201 -34 289 -6 381 121 436 709 90 947
-8 6 63 74 91 89 39 20 97 18 104 -3 12 -40 22 -48 55 -46 80 4 119 116 63
182 -41 49 -114 62 -206 36z m-225 -594 c149 -165 -14 -515 -207 -442 l-25 10
29 53 c16 29 42 98 60 153 17 55 42 137 57 183 29 93 37 97 86 43z m-530 -512
c26 -6 47 -15 47 -20 0 -17 -105 -69 -141 -69 -66 0 -94 69 -39 97 25 13 41
12 133 -8z"/>
</g>
</svg>
